# xmcd
#
# Track frame offsets:
#	150
#	6959
#	22151
#	42611
#	53563
#	74531
#	85356
#	117677
#	177329
#	195442
#	214043
#	226469
#	240609
#	256354
#	278987
#	306538
#
# Disc length: 4232 seconds
#
# Revision: 0
# Processed by: cddbd v1.5.2PL0 Copyright (c) Steve Scherf et al.
# Submitted via: EasyCDDAExtractor 10.0.3.1
#
DISCID=f2108610
DTITLE=Various Artist - Another Great Tomato Blues Package - Disc 1
DYEAR=2006
DGENRE=Blues
TTITLE0=Lead Belly - Talking About the Blues
TTITLE1=Big Bill Broonzy - Treat Everybody Right
TTITLE2=Albert King - Why Are You So Mean To Me
TTITLE3=Billy Holliday - Ain't Nobody's Business
TTITLE4=Michael Bloomfield - Junko Partner
TTITLE5=Nina Simone - I Want A Little Sugar In My Bowl
TTITLE6=John Coltrane - Naima
TTITLE7=George Gershwin - Rhapsody In Blue
TTITLE8=Son House - Judgment Day
TTITLE9=Muddy Waters/Otis Spann - Blow Wind Blow
TTITLE10=Earl King - A Mother's Love 
TTITLE11=Big Joe Turner - Cherry Red
TTITLE12=Dinah Washington - Willow Weep For Me
TTITLE13=Walter Wolfman Washington - It's Raining In My Life
TTITLE14=Bukka White - The Atlanta Special
TTITLE15=James Cotton - Good Time Charlie
EXTD=Released by Tomato, a registered trademark of The EGGE Company Limited. D
EXTD=isc 1 of a 2 CD set.\n
EXTT0=By Leadbelly\n
EXTT1=By Big Bill Broonzy\n
EXTT2=By Albert King\n
EXTT3=By Billy Holliday\n
EXTT4=By Mike Bloomfield\n
EXTT5=By Nina Simone\n
EXTT6=By John Coltrane\n
EXTT7=By George Gershwin\n
EXTT8=By Son House\n
EXTT9=By Muddy Waters/ Otis Spann\n
EXTT10=By Earl King\n
EXTT11=By Big Joe Turner\n
EXTT12=By Dinah Washington\n
EXTT13=By Walter Wolfman Washington\n
EXTT14=By Bukka White\n
EXTT15=By James Cotton\n
PLAYORDER=
